<svg width="65" height="43" viewBox="0 0 65 43" fill="none" xmlns="http://www.w3.org/2000/svg">
<path d="M49.3693 21.9917L45.9234 27.6194L38.2136 28.5248C36.8311 28.6863 36.277 30.0592 37.2796 30.8456L42.8575 35.2236L41.5382 41.4082C41.3007 42.526 42.7625 43.3634 43.9867 42.8406L50.8839 39.9205L57.781 42.8406C59.0053 43.3591 60.467 42.526 60.2295 41.4082L58.9103 35.2236L64.4881 30.8456C65.4908 30.0592 64.9367 28.6863 63.5541 28.5248L55.8443 27.6194L52.3984 21.9917C51.781 20.9886 49.992 20.9758 49.3693 21.9917Z" fill="url(#paint0_linear_17_46)"/>
<path d="M31.4082 3.73918L28.9239 7.85702L23.3657 8.51948C22.3689 8.63766 21.9695 9.64224 22.6923 10.2176L26.7135 13.4211L25.7624 17.9463C25.5912 18.7643 26.6451 19.377 27.5277 18.9945L32.5 16.8578L37.4724 18.9945C38.355 19.3739 39.4088 18.7643 39.2376 17.9463L38.2865 13.4211L42.3077 10.2176C43.0306 9.64224 42.6311 8.63766 41.6344 8.51948L36.0761 7.85702L33.5919 3.73918C33.1468 3.00519 31.8571 2.99586 31.4082 3.73918Z" fill="url(#paint1_linear_17_46)"/>
<path d="M6.44735 0.3878L4.68432 3.27029L0.739783 3.73401C0.0324115 3.81674 -0.251077 4.51994 0.261902 4.92271L3.11569 7.16512L2.44071 10.3328C2.31922 10.9054 3.06709 11.3343 3.69346 11.0665L7.22222 9.57082L10.751 11.0665C11.3774 11.3321 12.1252 10.9054 12.0037 10.3328L11.3288 7.16512L14.1825 4.92271C14.6955 4.51994 14.412 3.81674 13.7047 3.73401L9.76012 3.27029L7.99709 0.3878C7.68121 -0.125996 6.76594 -0.132527 6.44735 0.3878Z" fill="url(#paint2_linear_17_46)"/>
<defs>
<linearGradient id="paint0_linear_17_46" x1="50.8839" y1="21.2346" x2="50.8839" y2="43" gradientUnits="userSpaceOnUse">
<stop stop-color="#F9DA3C"/>
<stop offset="1" stop-color="#FB7D36" stop-opacity="0.41"/>
</linearGradient>
<linearGradient id="paint1_linear_17_46" x1="32.5" y1="3.18518" x2="32.5" y2="19.1111" gradientUnits="userSpaceOnUse">
<stop stop-color="#F9DA3C"/>
<stop offset="1" stop-color="#FB7D36" stop-opacity="0.41"/>
</linearGradient>
<linearGradient id="paint2_linear_17_46" x1="7.22222" y1="0" x2="7.22222" y2="11.1481" gradientUnits="userSpaceOnUse">
<stop stop-color="#F9DA3C"/>
<stop offset="1" stop-color="#FB7D36" stop-opacity="0.41"/>
</linearGradient>
</defs>
</svg>
